<?xml version="1.0" encoding="utf-8"?>
<!-- Generator: Adobe Illustrator 14.0.0, SVG Export Plug-In  -->
<!DOCTYPE svg PUBLIC "-//W3C//DTD SVG 1.1//EN" "http://www.w3.org/Graphics/SVG/1.1/DTD/svg11.dtd" [
	<!ENTITY ns_flows "http://ns.adobe.com/Flows/1.0/">
]>
<svg version="1.1"
	 xmlns="http://www.w3.org/2000/svg" xmlns:xlink="http://www.w3.org/1999/xlink" xmlns:a="http://ns.adobe.com/AdobeSVGViewerExtensions/3.0/"
	 x="0px" y="0px" width="27px" height="27px" viewBox="-0.3 -0.3 27 27" enable-background="new -0.3 -0.3 27 27"
	 xml:space="preserve">
<defs>
</defs>
<path fill="#456AB3" d="M18.5,0H7.8C3.5,0,0,3.5,0,7.8v10.6c0,4.3,3.5,7.8,7.8,7.8h10.6c4.3,0,7.8-3.5,7.8-7.8V7.8
	C26.3,3.5,22.8,0,18.5,0 M23.7,18.5c0,2.9-2.3,5.2-5.2,5.2H7.8c-2.9,0-5.2-2.3-5.2-5.2V7.8C2.6,5,5,2.6,7.8,2.6h10.6
	c2.9,0,5.2,2.3,5.2,5.2V18.5z"/>
<path fill="#456AB3" d="M5.6,11.5c0,1.7,1,3.1,2.5,3.7l1.3-2.4c-0.7-0.1-1.2-0.7-1.2-1.4c0-0.8,0.6-1.4,1.4-1.4h1.7v9.7h2.6v-4.3
	h4.5v-2.6h-4.5v-2.8h6.3V7.4H9.6C7.4,7.4,5.6,9.2,5.6,11.5"/>
</svg>
